# xmcd CD database file
#
# Track frame offsets:
#	150
#	14302
#	28651
#	42687
#	57365
#	71345
#	84991
#	100198
#	114846
#	128833
#	141584
#	154116
#	168555
#	181297
#	193509
#	206078
#	217080
#	228502
#	240963
#	254083
#	267404
#	280173
#	293307
#
# Disc length: 4075 seconds
#
# Revision: 0
# Processed by: cddbd v1.4PL0 Copyright (c) Steve Scherf et al.
# Submitted via: CDex 1.40Release
#
DISCID=520fe917
DTITLE=Blind Boy Fuller - Rag Mama Rag
DYEAR=1900
DGENRE=Blues
TTITLE0=I'm a Rattlesnakin' Daddy
TTITLE1=Looking for my Woman
TTITLE2=Rag Mama Rag
TTITLE3=Baby you Gotta Change Your Mind
TTITLE4=Evil Hearted Woman
TTITLE5=My Brownskin Sugarplum
TTITLE6=Black and Tan
TTITLE7=Keep Away from my Woman
TTITLE8=Cat Man Blues
TTITLE9=Sweet Honey Hole
TTITLE10=Mamie
TTITLE11=Weeping Willow
TTITLE12=New Louise Louise Blues
TTITLE13=Pistol Slapper Blues
TTITLE14=Piccolo Rag
TTITLE15=Get you Yas Yas Out
TTITLE16=Jitterbug Rag
TTITLE17=Big Leg Woman Gets my Pay
TTITLE18=I'm a Stranger Here
TTITLE19=Stip is up and Go
TTITLE20=Shake it Baby
TTITLE21=Three Ball Blues
TTITLE22=Lost Lover blues
EXTD=ID3G: 0
EXTT0=
EXTT1=
EXTT2=
EXTT3=
EXTT4=
EXTT5=
EXTT6=
EXTT7=
EXTT8=
EXTT9=
EXTT10=
EXTT11=
EXTT12=
EXTT13=
EXTT14=
EXTT15=
EXTT16=
EXTT17=
EXTT18=
EXTT19=
EXTT20=
EXTT21=
EXTT22=
PLAYORDER=
